<?xml version="1.0" encoding="iso-8859-1"?>
<!-- Generator: Adobe Illustrator 19.0.0, SVG Export Plug-In . SVG Version: 6.00 Build 0)  -->
<svg version="1.1" id="Layer_1" xmlns="http://www.w3.org/2000/svg" xmlns:xlink="http://www.w3.org/1999/xlink" x="0px" y="0px"
	 viewBox="0 0 503.467 503.467" style="enable-background:new 0 0 503.467 503.467;" xml:space="preserve">
<g transform="translate(1 1)">
	<path style="fill:#80D6FA;" d="M274.627,394.947c0.853,5.973,1.707,11.947,1.707,17.92c0,46.933-38.4,85.333-85.333,85.333H88.6
		c-46.933,0-85.333-38.4-85.333-85.333c0-40.96,29.013-75.947,68.267-83.627v35.84c-19.627,6.827-34.133,25.6-34.133,47.787
		c0,28.16,23.04,51.2,51.2,51.2H191c28.16,0,51.2-23.04,51.2-51.2c0-12.8-4.267-23.893-11.947-32.427l23.893-23.893
		c7.68,8.533,13.653,19.627,17.92,30.72l-2.56,3.413L274.627,394.947z M226.84,336.067l-27.307,26.453
		c-3.413-0.853-5.973-0.853-9.387-0.853h-85.333v-34.133h85.333C203.8,327.533,215.747,330.947,226.84,336.067z"/>
	<path style="fill:#ECF4F7;" d="M251.587,311.32l23.893,23.893L255,355.693l-23.893,23.893l-30.72,30.72
		c-6.827,6.827-17.067,6.827-23.893,0c-6.827-6.827-6.827-17.067,0-23.893l24.747-24.747l27.307-26.453L251.587,311.32z"/>
	<path style="fill:#80D6FA;" d="M105.667,361.667v51.2c0,9.387-7.68,17.067-17.067,17.067s-17.067-7.68-17.067-17.067V365.08
		v-34.987V275.48v-34.987V191c0-9.387,7.68-17.067,17.067-17.067s17.067,7.68,17.067,17.067v47.787v34.987v52.907V361.667z"/>
	<g>
		<path style="fill:#ECF4F7;" d="M407.747,383.854c6.827,6.827,6.827,17.067,0,23.893s-17.067,6.827-23.893,0L307.907,331.8
			l23.893-23.893L407.747,383.854z"/>
		<path style="fill:#ECF4F7;" d="M473.454,352.28c33.28,33.28,33.28,87.04,0,120.32s-87.04,33.28-120.32,0l-77.653-77.653
			c-0.853-2.56-1.707-5.12-2.56-7.68l22.187-23.04c1.707,3.413,6.827,10.24,9.387,12.8l72.533,72.533
			c19.627,19.627,52.053,19.627,72.533,0c20.48-19.627,20.48-52.053,0-72.533l-72.533-72.533c-4.267-4.267-9.387-7.68-14.507-10.24
			l16.213-29.867c7.68,4.267,15.36,9.387,22.187,16.213L473.454,352.28z"/>
	</g>
	<path style="fill:#80D6FA;" d="M173.934,88.6V191c0,40.96-29.013,75.947-68.267,83.627V239.64
		c19.627-6.827,34.133-25.6,34.133-47.787v-102.4c0-28.16-23.04-51.2-51.2-51.2s-51.2,23.04-51.2,51.2v102.4
		c0,22.187,14.507,40.96,34.133,47.787v34.987C32.28,266.947,3.267,231.96,3.267,191V88.6c0-46.933,38.4-85.333,85.333-85.333
		S173.934,41.667,173.934,88.6"/>
</g>
<path style="fill:#51565F;" d="M413.867,503.467c-23.893,0-46.08-9.387-63.147-26.453l-82.773-82.773
	c-1.707-1.707-1.707-4.267,0-5.973c1.707-1.707,4.267-1.707,5.973,0l82.773,82.773c15.36,15.36,35.84,23.893,57.173,23.893
	s41.813-8.533,57.173-23.893c15.36-15.36,23.893-35.84,23.893-57.173c0-21.333-8.533-41.813-23.893-57.173l-72.533-72.533
	c-5.973-5.973-13.653-11.093-21.333-15.36c-1.707-0.853-2.56-3.413-1.707-5.973c0.853-1.707,3.413-2.56,5.973-1.707
	c8.533,4.267,16.213,10.24,23.04,17.067l72.533,72.533c17.067,17.067,26.453,39.253,26.453,63.147
	c0,23.893-9.387,46.08-26.453,63.147C459.947,494.08,437.76,503.467,413.867,503.467z M192,503.467H89.6
	c-49.493,0-89.6-40.107-89.6-89.6C0,384,15.36,355.84,40.107,338.774c1.707-1.707,4.267-0.853,5.973,0.853
	c1.707,1.707,0.853,4.267-0.853,5.973c-23.04,15.36-36.693,40.107-36.693,67.413c0,44.373,36.693,81.067,81.067,81.067h102.4
	c38.4,0,71.68-27.307,79.36-64.853c0.853-2.56,2.56-3.413,5.12-3.413c2.56,0.853,3.413,2.56,3.413,5.12
	C271.36,473.6,234.667,503.467,192,503.467z M413.867,469.333c-14.507,0-29.013-5.973-39.253-16.213l-72.533-72.533
	c-3.413-3.413-8.533-10.24-10.24-13.653c-0.853-1.707-0.853-4.267,1.707-5.973c1.707-0.853,4.267-0.853,5.973,1.707
	c1.707,3.413,6.827,9.387,9.387,11.947l72.533,72.533c8.533,8.533,20.48,13.653,33.28,13.653c12.8,0,23.893-5.12,33.28-13.653
	c17.92-17.92,17.92-47.787,0-66.56l-72.533-72.533c-4.267-3.413-8.533-6.827-12.8-9.387c-1.707-0.853-3.413-3.413-1.707-5.973
	c1.707-2.56,3.413-3.413,5.973-1.707c5.973,2.56,11.093,5.973,15.36,11.093l72.533,72.533c21.333,21.333,21.333,57.173,0,78.507
	C442.88,463.36,428.374,469.333,413.867,469.333z M192,469.333H89.6c-30.72,0-55.467-24.747-55.467-55.467
	c0-8.533,1.707-16.213,5.12-23.893c0.853-1.707,3.413-3.413,5.973-1.707c2.56,0.853,3.413,3.413,1.707,5.973
	c-2.56,5.973-4.267,12.8-4.267,19.627c0,25.6,21.333,46.933,46.933,46.933h102.4c25.6,0,46.933-21.333,46.933-46.933
	c0-2.56,1.707-4.267,4.267-4.267s4.267,1.707,4.267,4.267C247.467,444.587,222.72,469.333,192,469.333z M89.6,435.2
	c-11.947,0-21.333-9.387-21.333-21.333V192c0-11.947,9.387-21.333,21.333-21.333s21.333,9.387,21.333,21.333v221.867
	C110.934,425.813,101.547,435.2,89.6,435.2z M89.6,179.2c-6.827,0-12.8,5.973-12.8,12.8v221.867c0,6.827,5.973,12.8,12.8,12.8
	s12.8-5.973,12.8-12.8V192C102.4,185.174,96.427,179.2,89.6,179.2z M188.587,421.547c-5.973,0-11.093-2.56-15.36-5.973
	c-4.267-4.267-5.973-9.387-5.973-15.36c0-5.973,2.56-11.093,5.973-15.36l75.947-75.947c1.707-1.707,4.267-1.707,5.973,0
	c1.707,1.707,1.707,4.267,0,5.973L179.2,390.827c-2.56,2.56-3.413,5.973-3.413,9.387c0,3.413,1.707,6.827,3.413,9.387
	c5.12,5.12,13.653,5.12,17.92,0l75.947-75.947c1.707-1.707,4.267-1.707,5.973,0c1.707,1.707,1.707,4.267,0,5.973l-75.947,75.947
	C199.68,418.987,194.56,421.547,188.587,421.547z M396.8,418.133c-5.12,0-11.093-1.707-15.36-5.973l-75.947-75.947
	c-1.707-1.707-1.707-4.267,0-5.973c1.707-1.707,4.267-1.707,5.973,0l75.947,75.947c5.12,5.12,12.8,5.12,17.92,0s5.12-12.8,0-17.92
	l-75.947-75.947c-1.707-1.707-1.707-4.267,0-5.973c1.707-1.707,4.267-1.707,5.973,0l75.947,75.947
	c8.533,8.533,8.533,22.187,0,29.867C407.894,416.427,401.92,418.133,396.8,418.133z M162.134,366.933h-25.6
	c-2.56,0-4.267-1.707-4.267-4.267c0-2.56,1.707-4.267,4.267-4.267h25.6c2.56,0,4.267,1.707,4.267,4.267
	C166.4,365.227,164.694,366.933,162.134,366.933z M192,332.8h-55.467c-2.56,0-4.267-1.707-4.267-4.267s1.707-4.267,4.267-4.267H192
	c2.56,0,4.267,1.707,4.267,4.267S194.56,332.8,192,332.8z M331.094,279.04c-0.853,0-2.56,0-3.413-0.853
	c-1.707-1.707-1.707-4.267,0-5.973l23.893-23.893c1.707-1.707,4.267-1.707,5.973,0s1.707,4.267,0,5.973l-23.893,23.893
	C333.654,278.187,331.947,279.04,331.094,279.04z M256.854,278.187c-0.853,0-2.56,0-3.413-0.853l-23.04-23.04
	c-0.853-0.853-0.853-1.707-0.853-3.413s0-2.56,0.853-3.413c1.707-1.707,4.267-1.707,5.973,0l23.04,23.04
	c0.853,0.853,0.853,1.707,0.853,3.413s0,2.56-0.853,3.413C259.414,278.187,258.56,278.187,256.854,278.187z M136.534,267.947
	c-1.707,0-2.56-0.853-3.413-1.707c-1.707-1.707-0.853-4.267,0.853-5.973c23.04-15.36,36.693-40.107,36.693-67.413v-102.4
	c0-44.373-36.693-81.067-81.067-81.067S8.534,46.08,8.534,90.453v102.4c0,27.307,13.653,52.907,36.693,67.413
	c1.707,1.707,2.56,4.267,0.853,5.973c-1.707,1.707-4.267,2.56-5.973,0.853C14.507,250.027,0,222.72,0,192V89.6
	C0,40.107,40.107,0,89.6,0s89.6,40.107,89.6,89.6V192c0,29.867-15.36,58.027-40.107,75.093
	C138.24,267.093,137.387,267.947,136.534,267.947z M294.4,264.533c-2.56,0-4.267-1.707-4.267-4.267v-34.133
	c0-2.56,1.707-4.267,4.267-4.267s4.267,1.707,4.267,4.267v34.133C298.667,262.827,296.96,264.533,294.4,264.533z M136.534,217.6
	c-0.853,0-0.853,0-1.707,0c-2.56-0.853-3.413-3.413-1.707-5.973c2.56-5.973,4.267-12.8,4.267-19.627V89.6
	c0-25.6-21.333-46.933-46.933-46.933S43.52,64,43.52,89.6V192c0,6.827,1.707,13.653,4.267,19.627c0.853,2.56,0,4.267-1.707,5.973
	c-2.56,0.853-4.267,0-5.973-1.707c-3.413-6.827-5.12-14.507-5.12-23.04v-102.4c0-30.72,24.747-55.467,55.467-55.467
	s55.467,24.747,55.467,55.467v102.4c0,7.68-1.707,16.213-5.12,23.04C139.093,216.747,137.387,217.6,136.534,217.6z"/>
<g>
</g>
<g>
</g>
<g>
</g>
<g>
</g>
<g>
</g>
<g>
</g>
<g>
</g>
<g>
</g>
<g>
</g>
<g>
</g>
<g>
</g>
<g>
</g>
<g>
</g>
<g>
</g>
<g>
</g>
</svg>
