<?xml version="1.0" encoding="UTF-8"?>
<svg xmlns="http://www.w3.org/2000/svg" xmlns:xlink="http://www.w3.org/1999/xlink" width="464.22pt" height="402pt" viewBox="0 0 464.22 402" version="1.1">
<defs>
<clipPath id="clip1">
  <path d="M 408 207 L 464.21875 207 L 464.21875 256 L 408 256 Z M 408 207 "/>
</clipPath>
</defs>
<g id="surface1">
<path style=" stroke:none;fill-rule:nonzero;fill:rgb(93.699646%,93.699646%,93.699646%);fill-opacity:1;" d="M 66.570313 367.964844 C 155.324219 413.34375 299.230469 413.34375 387.988281 367.964844 C 476.746094 322.585938 476.746094 249.011719 387.988281 203.632813 C 299.230469 158.253906 155.324219 158.253906 66.566406 203.632813 C -22.191406 249.011719 -22.191406 322.585938 66.570313 367.964844 "/>
<path style=" stroke:none;fill-rule:nonzero;fill:rgb(89.399719%,89.7995%,89.399719%);fill-opacity:1;" d="M 356.84375 295.46875 C 361.710938 298.277344 371.269531 297.3125 378.199219 293.308594 L 418.132813 270.117188 C 425.0625 266.117188 426.726563 260.59375 421.851563 257.777344 C 416.976563 254.964844 407.410156 255.929688 400.484375 259.929688 L 360.578125 283.136719 C 353.652344 287.140625 351.980469 292.660156 356.84375 295.46875 "/>
<path style=" stroke:none;fill-rule:nonzero;fill:rgb(89.399719%,89.7995%,89.399719%);fill-opacity:1;" d="M 116.425781 316.859375 L 75.804688 293.40625 L 116.425781 269.953125 L 116.425781 316.859375 "/>
<path style=" stroke:none;fill-rule:nonzero;fill:rgb(89.399719%,89.7995%,89.399719%);fill-opacity:1;" d="M 231.234375 330.890625 L 165.761719 293.066406 L 231.25 255.316406 Z M 231.234375 330.890625 "/>
<path style=" stroke:none;fill-rule:nonzero;fill:rgb(32.899475%,75.698853%,69.398499%);fill-opacity:1;" d="M 61.476563 262.023438 C 61.589844 252.523438 54.953125 232.761719 45.242188 220.304688 C 35.53125 207.851563 20.140625 198.644531 9.082031 202.277344 C -1.214844 205.660156 -0.265625 219.128906 12.070313 228.195313 C 24.40625 237.261719 42.972656 248.683594 48.261719 264.160156 L 59.515625 283.210938 L 61.476563 262.023438 "/>
<path style=" stroke:none;fill-rule:nonzero;fill:rgb(25.099182%,74.099731%,65.899658%);fill-opacity:1;" d="M 55.5 276.410156 L 48.261719 264.160156 C 42.972656 248.683594 24.40625 237.261719 12.070313 228.195313 C 5.359375 223.265625 2.019531 217.03125 2.023438 211.824219 C 2.03125 207.460938 4.386719 203.820313 9.082031 202.277344 C 10.742188 201.734375 12.492188 201.476563 14.3125 201.476563 C 24.625 201.476563 36.988281 209.71875 45.242188 220.304688 C 49.28125 225.484375 52.789063 231.929688 55.5 238.371094 L 55.5 276.410156 "/>
<path style=" stroke:none;fill-rule:nonzero;fill:rgb(100%,100%,100%);fill-opacity:1;" d="M 62.019531 275.03125 C 61.71875 275.003906 61.457031 274.777344 61.402344 274.46875 C 55.429688 241.957031 29.507813 215.28125 13.875 209.265625 C 13.519531 209.128906 13.339844 208.726563 13.476563 208.371094 C 13.613281 208.015625 14.007813 207.828125 14.371094 207.972656 C 30.304688 214.097656 56.703125 241.214844 62.765625 274.214844 C 62.835938 274.59375 62.585938 274.953125 62.210938 275.023438 L 62.019531 275.03125 "/>
<path style=" stroke:none;fill-rule:nonzero;fill:rgb(32.899475%,75.698853%,69.398499%);fill-opacity:1;" d="M 56.933594 295.734375 C 55.472656 290.378906 49.054688 281.484375 38.589844 274.078125 C 27.015625 265.882813 12.289063 262.003906 8.960938 255.695313 C 4.960938 248.113281 11.390625 241.074219 23.363281 242.707031 C 35.335938 244.339844 56.21875 260.949219 59.292969 285.617188 L 56.933594 295.734375 "/>
<path style=" stroke:none;fill-rule:nonzero;fill:rgb(100%,100%,100%);fill-opacity:1;" d="M 59.320313 290.160156 C 59.058594 290.132813 58.820313 289.960938 58.726563 289.691406 C 49.117188 261.789063 28.035156 251.78125 18.230469 250.386719 C 17.851563 250.335938 17.585938 249.984375 17.640625 249.601563 C 17.695313 249.222656 18.03125 248.957031 18.425781 249.011719 C 29.265625 250.554688 50.230469 260.757813 60.042969 289.242188 C 60.164063 289.601563 59.972656 290 59.609375 290.121094 C 59.515625 290.15625 59.414063 290.167969 59.320313 290.160156 "/>
<path style=" stroke:none;fill-rule:nonzero;fill:rgb(32.899475%,75.698853%,69.398499%);fill-opacity:1;" d="M 416.039063 234.980469 C 416.039063 234.980469 417.371094 214.949219 429.175781 200.078125 C 440.980469 185.210938 440.253906 179.085938 432.117188 176.085938 C 423.976563 173.082031 405.070313 191.003906 409.277344 215.003906 C 413.484375 239 416.039063 234.980469 416.039063 234.980469 "/>
<path style=" stroke:none;fill-rule:nonzero;fill:rgb(25.099182%,74.099731%,65.899658%);fill-opacity:1;" d="M 415.570313 235.234375 C 414.652344 235.234375 412.429688 232.976563 409.277344 215.003906 C 408.867188 212.65625 408.675781 210.371094 408.675781 208.15625 C 408.664063 189.371094 422.25 175.757813 430.15625 175.757813 C 430.859375 175.757813 431.515625 175.863281 432.117188 176.085938 C 435.953125 177.5 438.144531 179.609375 438.148438 183.007813 C 438.152344 186.808594 435.414063 192.222656 429.175781 200.078125 C 417.371094 214.949219 416.039063 234.980469 416.039063 234.980469 C 416.039063 234.980469 415.878906 235.234375 415.570313 235.234375 "/>
<path style=" stroke:none;fill-rule:nonzero;fill:rgb(100%,100%,100%);fill-opacity:1;" d="M 412.433594 223.539063 C 412.1875 223.539063 411.984375 223.347656 411.96875 223.101563 C 410.589844 201.042969 426.167969 182.945313 432 178.847656 C 432.207031 178.699219 432.5 178.75 432.648438 178.960938 C 432.796875 179.171875 432.746094 179.460938 432.535156 179.609375 C 426.816406 183.625 411.542969 201.382813 412.898438 223.046875 C 412.914063 223.300781 412.71875 223.519531 412.460938 223.539063 L 412.433594 223.539063 "/>
<g clip-path="url(#clip1)" clip-rule="nonzero">
<path style=" stroke:none;fill-rule:nonzero;fill:rgb(32.899475%,75.698853%,69.398499%);fill-opacity:1;" d="M 412.828125 251.523438 C 412.828125 251.523438 419.945313 253.988281 429.085938 255.433594 C 438.226563 256.882813 442.261719 252.511719 442.261719 252.511719 C 442.261719 252.511719 438.660156 243.9375 433.46875 241.53125 C 433.46875 241.53125 442.269531 243.324219 449.335938 248.039063 C 449.335938 248.039063 454.917969 248.125 457.136719 239.605469 C 457.136719 239.605469 453.832031 234.476563 442.734375 231.707031 C 442.734375 231.707031 449.484375 230.007813 459.214844 232.488281 C 459.945313 232.78125 463.054688 221.765625 463.992188 216.683594 C 464.933594 211.601563 462.890625 211.65625 458.929688 210.597656 C 454.96875 209.539063 441.847656 206.59375 439.367188 208.769531 C 436.886719 210.949219 435.628906 218.402344 435.628906 218.402344 C 435.628906 218.402344 433.992188 214.003906 435.253906 208.957031 C 435.253906 208.957031 431.6875 207.5625 426.15625 209.175781 C 421.632813 210.488281 421.410156 213.570313 421.617188 217.050781 C 421.765625 219.59375 422.378906 222.304688 423.574219 225.886719 C 423.574219 225.886719 420.046875 221.363281 419.9375 211.5625 C 419.9375 211.5625 410.675781 216.160156 409.09375 225.355469 C 408.242188 230.320313 407.027344 244.917969 412.828125 251.523438 "/>
</g>
<path style=" stroke:none;fill-rule:nonzero;fill:rgb(100%,100%,100%);fill-opacity:1;" d="M 414.578125 249.734375 C 414.765625 249.734375 414.949219 249.628906 415.039063 249.445313 C 422.414063 234.117188 449.839844 216.308594 459.664063 214.398438 C 459.941406 214.34375 460.125 214.074219 460.070313 213.796875 C 460.015625 213.515625 459.746094 213.339844 459.46875 213.390625 C 449.484375 215.332031 421.605469 233.425781 414.113281 248.996094 C 413.988281 249.253906 414.097656 249.5625 414.351563 249.683594 L 414.578125 249.734375 "/>
<path style=" stroke:none;fill-rule:nonzero;fill:rgb(97.599792%,97.299194%,97.299194%);fill-opacity:1;" d="M 57.894531 302.820313 C 56.761719 302.820313 56.082031 301.882813 56.082031 300.316406 L 56.082031 132.105469 L 262.078125 13.175781 L 262.078125 180.707031 C 262.078125 183.277344 260.265625 186.414063 258.039063 187.699219 L 59.535156 302.308594 C 58.957031 302.644531 58.386719 302.820313 57.894531 302.820313 "/>
<path style=" stroke:none;fill-rule:nonzero;fill:rgb(84.298706%,85.099792%,84.698486%);fill-opacity:1;" d="M 262.664063 12.160156 L 55.5 131.769531 L 55.5 300.316406 C 55.5 302.273438 56.472656 303.40625 57.894531 303.40625 C 58.476563 303.40625 59.132813 303.214844 59.828125 302.816406 L 258.335938 188.207031 C 260.726563 186.824219 262.664063 183.46875 262.664063 180.707031 L 262.664063 12.160156 M 261.492188 14.1875 L 261.492188 180.707031 C 261.492188 183.050781 259.777344 186.023438 257.75 187.195313 L 59.242188 301.800781 C 58.75 302.085938 58.285156 302.234375 57.894531 302.234375 C 56.789063 302.234375 56.667969 300.890625 56.667969 300.316406 L 56.667969 132.445313 L 261.492188 14.1875 "/>
<path style=" stroke:none;fill-rule:nonzero;fill:rgb(32.899475%,75.698853%,69.398499%);fill-opacity:1;" d="M 55.5 131.769531 L 55.5 159.910156 L 262.660156 40.308594 L 262.664063 12.160156 L 55.5 131.769531 "/>
<path style=" stroke:none;fill-rule:nonzero;fill:rgb(97.599792%,97.299194%,97.299194%);fill-opacity:1;" d="M 71.746094 133.269531 L 71.746094 137.304688 C 71.746094 138.132813 72.332031 138.46875 73.046875 138.054688 L 136.738281 101.28125 L 136.738281 94.246094 L 73.042969 131.019531 C 72.332031 131.433594 71.746094 132.445313 71.746094 133.269531 "/>
<path style=" stroke:none;fill-rule:nonzero;fill:rgb(25.099182%,34.098816%,37.998962%);fill-opacity:1;" d="M 143.5625 90.304688 C 144.28125 89.890625 144.863281 90.226563 144.863281 91.054688 L 144.863281 95.09375 C 144.863281 95.921875 144.28125 96.929688 143.5625 97.34375 L 136.738281 101.28125 L 136.738281 94.246094 L 143.5625 90.304688 "/>
<path style=" stroke:none;fill-rule:nonzero;fill:rgb(25.099182%,34.098816%,37.998962%);fill-opacity:1;" d="M 55.5 122.695313 C 55.5 119.933594 57.4375 116.578125 59.828125 115.195313 L 258.332031 0.589844 C 260.722656 -0.789063 262.664063 0.328125 262.664063 3.089844 L 262.664063 12.160156 L 55.5 131.769531 L 55.5 122.695313 "/>
<path style=" stroke:none;fill-rule:nonzero;fill:rgb(32.899475%,75.698853%,69.398499%);fill-opacity:1;" d="M 239.636719 16.09375 C 238.515625 16.742188 237.605469 18.316406 237.605469 19.609375 C 237.605469 20.90625 238.515625 21.433594 239.636719 20.785156 C 240.761719 20.136719 241.671875 18.5625 241.671875 17.265625 C 241.671875 15.96875 240.761719 15.445313 239.636719 16.09375 "/>
<path style=" stroke:none;fill-rule:nonzero;fill:rgb(32.899475%,75.698853%,69.398499%);fill-opacity:1;" d="M 246.074219 12.371094 C 244.949219 13.019531 244.042969 14.597656 244.042969 15.890625 C 244.042969 17.1875 244.949219 17.710938 246.074219 17.0625 C 247.195313 16.417969 248.105469 14.839844 248.105469 13.546875 C 248.105469 12.25 247.195313 11.726563 246.074219 12.371094 "/>
<path style=" stroke:none;fill-rule:nonzero;fill:rgb(32.899475%,75.698853%,69.398499%);fill-opacity:1;" d="M 252.507813 8.652344 C 251.386719 9.300781 250.476563 10.875 250.476563 12.171875 C 250.476563 13.464844 251.386719 13.992188 252.507813 13.34375 C 253.628906 12.695313 254.539063 11.121094 254.539063 9.824219 C 254.539063 8.53125 253.628906 8.003906 252.507813 8.652344 "/>
<path style=" stroke:none;fill-rule:nonzero;fill:rgb(25.099182%,74.099731%,65.899658%);fill-opacity:1;" d="M 195.6875 69.492188 C 194.230469 69.492188 193.230469 68.332031 193.230469 66.320313 C 193.230469 63.492188 195.21875 60.046875 197.667969 58.632813 C 198.382813 58.21875 199.054688 58.023438 199.652344 58.023438 C 201.109375 58.023438 202.109375 59.1875 202.109375 61.195313 C 202.109375 64.027344 200.121094 67.472656 197.667969 68.886719 C 196.957031 69.296875 196.28125 69.492188 195.6875 69.492188 "/>
<path style=" stroke:none;fill-rule:nonzero;fill:rgb(25.099182%,74.099731%,65.899658%);fill-opacity:1;" d="M 175.375 81.21875 C 173.921875 81.21875 172.921875 80.058594 172.921875 78.046875 C 172.921875 75.21875 174.90625 71.773438 177.359375 70.359375 C 178.070313 69.945313 178.746094 69.753906 179.34375 69.753906 C 180.796875 69.753906 181.800781 70.914063 181.800781 72.921875 C 181.800781 75.753906 179.8125 79.195313 177.359375 80.613281 C 176.644531 81.023438 175.972656 81.21875 175.375 81.21875 "/>
<path style=" stroke:none;fill-rule:nonzero;fill:rgb(25.099182%,74.099731%,65.899658%);fill-opacity:1;" d="M 215.996094 57.765625 C 214.539063 57.765625 213.539063 56.605469 213.539063 54.597656 C 213.539063 51.765625 215.527344 48.320313 217.980469 46.90625 C 218.691406 46.492188 219.363281 46.300781 219.960938 46.300781 C 221.417969 46.300781 222.417969 47.460938 222.417969 49.46875 C 222.417969 52.300781 220.429688 55.746094 217.980469 57.160156 C 217.265625 57.570313 216.59375 57.765625 215.996094 57.765625 "/>
<path style=" stroke:none;fill-rule:nonzero;fill:rgb(25.099182%,74.099731%,65.899658%);fill-opacity:1;" d="M 236.308594 46.019531 C 234.851563 46.019531 233.851563 44.855469 233.851563 42.847656 C 233.851563 40.015625 235.839844 36.570313 238.289063 35.15625 C 239.003906 34.746094 239.675781 34.550781 240.273438 34.550781 C 241.730469 34.550781 242.730469 35.710938 242.730469 37.722656 C 242.730469 40.550781 240.742188 43.996094 238.289063 45.410156 C 237.578125 45.824219 236.902344 46.019531 236.308594 46.019531 "/>
<path style=" stroke:none;fill-rule:nonzero;fill:rgb(84.298706%,85.099792%,84.698486%);fill-opacity:1;" d="M 76.078125 162.105469 L 124.285156 134.269531 C 126.675781 132.890625 128.613281 134.007813 128.613281 136.769531 L 128.613281 183.054688 C 128.613281 185.816406 126.675781 189.175781 124.285156 190.554688 L 76.078125 218.390625 C 73.6875 219.769531 71.746094 218.652344 71.746094 215.890625 L 71.746094 169.605469 C 71.746094 166.84375 73.683594 163.484375 76.078125 162.105469 "/>
<path style=" stroke:none;fill-rule:nonzero;fill:rgb(84.298706%,85.099792%,84.698486%);fill-opacity:1;" d="M 145.136719 122.234375 L 246.144531 63.910156 C 248.535156 62.53125 250.476563 63.652344 250.476563 66.410156 L 250.476563 112.699219 C 250.476563 115.460938 248.539063 118.816406 246.144531 120.199219 L 145.136719 178.519531 C 142.742188 179.902344 140.804688 178.78125 140.804688 176.019531 L 140.804688 129.734375 C 140.804688 126.972656 142.742188 123.613281 145.136719 122.234375 "/>
<path style=" stroke:none;fill-rule:nonzero;fill:rgb(84.298706%,85.099792%,84.698486%);fill-opacity:1;" d="M 76.078125 232.460938 L 152.71875 188.210938 C 155.109375 186.828125 157.050781 187.8125 157.050781 190.402344 C 157.050781 192.992188 155.109375 196.210938 152.71875 197.589844 L 76.078125 241.839844 C 73.683594 243.222656 71.746094 242.242188 71.746094 239.652344 C 71.746094 237.058594 73.683594 233.839844 76.078125 232.460938 "/>
<path style=" stroke:none;fill-rule:nonzero;fill:rgb(84.298706%,85.099792%,84.698486%);fill-opacity:1;" d="M 76.078125 248.875 L 152.71875 204.625 C 155.109375 203.242188 157.050781 204.226563 157.050781 206.816406 C 157.050781 209.40625 155.109375 212.625 152.71875 214.007813 L 76.078125 258.253906 C 73.683594 259.636719 71.746094 258.65625 71.746094 256.066406 C 71.746094 253.472656 73.683594 250.253906 76.078125 248.875 "/>
<path style=" stroke:none;fill-rule:nonzero;fill:rgb(84.298706%,85.099792%,84.698486%);fill-opacity:1;" d="M 76.078125 265.289063 L 152.71875 221.039063 C 155.109375 219.65625 157.050781 220.640625 157.050781 223.230469 C 157.050781 225.820313 155.109375 229.039063 152.71875 230.421875 L 76.078125 274.671875 C 73.683594 276.050781 71.746094 275.070313 71.746094 272.480469 C 71.746094 269.890625 73.683594 266.671875 76.078125 265.289063 "/>
<path style=" stroke:none;fill-rule:nonzero;fill:rgb(32.899475%,75.698853%,69.398499%);fill-opacity:1;" d="M 112.367188 209.628906 C 112.367188 207.972656 113.53125 205.957031 114.964844 205.128906 L 247.875 128.394531 C 249.308594 127.566406 251.636719 127.566406 253.070313 128.394531 L 256 130.085938 C 257.433594 130.914063 258.597656 132.925781 258.597656 134.585938 L 258.597656 236.464844 C 258.597656 238.113281 257.429688 240.136719 256 240.964844 L 123.089844 317.699219 C 121.660156 318.523438 119.320313 318.523438 117.894531 317.699219 L 114.964844 316.007813 C 113.535156 315.183594 112.367188 313.15625 112.367188 311.507813 L 112.367188 209.628906 "/>
<path style=" stroke:none;fill-rule:nonzero;fill:rgb(98.399353%,98.799133%,98.799133%);fill-opacity:1;" d="M 113.125 207.070313 C 113.46875 206.476563 113.90625 205.933594 114.40625 205.523438 C 113.910156 205.933594 113.472656 206.476563 113.125 207.070313 M 256.644531 130.550781 C 256.4375 130.371094 256.222656 130.214844 256 130.085938 L 254.976563 129.492188 L 256.003906 130.082031 C 256.222656 130.210938 256.441406 130.371094 256.644531 130.550781 M 249.261719 127.890625 C 249.652344 127.8125 250.0625 127.773438 250.472656 127.773438 C 250.808594 127.773438 251.144531 127.796875 251.46875 127.851563 C 251.144531 127.800781 250.808594 127.773438 250.472656 127.773438 C 250.0625 127.773438 249.652344 127.8125 249.261719 127.890625 "/>
<path style=" stroke:none;fill-rule:nonzero;fill:rgb(49.798584%,80.39856%,77.999878%);fill-opacity:1;" d="M 120.5 211.324219 L 113.125 207.070313 C 113.472656 206.476563 113.910156 205.933594 114.40625 205.523438 C 114.585938 205.371094 114.773438 205.238281 114.96875 205.128906 L 247.878906 128.398438 C 248.28125 128.164063 248.757813 127.992188 249.261719 127.890625 C 249.652344 127.8125 250.0625 127.773438 250.472656 127.773438 C 250.808594 127.773438 251.144531 127.800781 251.46875 127.851563 C 252.054688 127.945313 252.609375 128.128906 253.066406 128.398438 L 254.976563 129.492188 L 256 130.085938 C 256.222656 130.214844 256.4375 130.371094 256.644531 130.550781 C 257.101563 130.949219 257.511719 131.464844 257.835938 132.023438 L 120.5 211.324219 "/>
<path style=" stroke:none;fill-rule:nonzero;fill:rgb(78.799438%,79.598999%,79.598999%);fill-opacity:1;" d="M 113.816406 315.035156 C 112.957031 314.050781 112.363281 312.6875 112.363281 311.503906 L 112.363281 272.484375 L 112.367188 272.480469 L 112.367188 311.507813 C 112.367188 312.683594 112.960938 314.046875 113.816406 315.035156 "/>
<path style=" stroke:none;fill-rule:nonzero;fill:rgb(84.698486%,85.499573%,85.099792%);fill-opacity:1;" d="M 112.363281 271.132813 L 112.363281 253.71875 L 112.367188 253.71875 L 112.367188 271.128906 L 112.363281 271.132813 "/>
<path style=" stroke:none;fill-rule:nonzero;fill:rgb(74.899292%,75.698853%,75.698853%);fill-opacity:1;" d="M 112.363281 272.484375 L 112.363281 271.132813 L 112.367188 271.128906 L 112.367188 272.480469 L 112.363281 272.484375 "/>
<path style=" stroke:none;fill-rule:nonzero;fill:rgb(84.698486%,85.499573%,85.099792%);fill-opacity:1;" d="M 112.363281 244.339844 L 112.363281 237.304688 L 112.367188 237.304688 L 112.367188 244.335938 L 112.363281 244.339844 M 112.363281 227.925781 L 112.363281 220.890625 L 112.367188 220.890625 L 112.367188 227.921875 L 112.363281 227.925781 M 112.363281 211.511719 L 112.363281 209.628906 C 112.363281 208.804688 112.65625 207.882813 113.125 207.070313 C 112.65625 207.886719 112.367188 208.800781 112.367188 209.628906 L 112.367188 211.507813 L 112.363281 211.511719 "/>
<path style=" stroke:none;fill-rule:nonzero;fill:rgb(74.899292%,75.698853%,75.698853%);fill-opacity:1;" d="M 112.363281 220.890625 L 112.363281 211.511719 L 112.367188 211.507813 L 112.367188 220.890625 L 112.363281 220.890625 "/>
<path style=" stroke:none;fill-rule:nonzero;fill:rgb(74.899292%,75.698853%,75.698853%);fill-opacity:1;" d="M 112.363281 237.304688 L 112.363281 227.925781 L 112.367188 227.921875 L 112.367188 237.304688 L 112.363281 237.304688 "/>
<path style=" stroke:none;fill-rule:nonzero;fill:rgb(74.899292%,75.698853%,75.698853%);fill-opacity:1;" d="M 112.363281 253.71875 L 112.363281 244.339844 L 112.367188 244.335938 L 112.367188 253.71875 L 112.363281 253.71875 "/>
<path style=" stroke:none;fill-rule:nonzero;fill:rgb(25.099182%,74.099731%,65.899658%);fill-opacity:1;" d="M 120.476563 318.3125 C 120.207031 318.3125 119.9375 318.296875 119.675781 318.265625 C 119.296875 318.214844 118.9375 318.128906 118.605469 318.019531 C 118.347656 317.933594 118.113281 317.820313 117.894531 317.699219 L 114.96875 316.003906 C 114.554688 315.765625 114.164063 315.433594 113.816406 315.035156 C 112.960938 314.046875 112.367188 312.683594 112.367188 311.507813 L 112.367188 209.628906 C 112.367188 208.800781 112.65625 207.886719 113.125 207.070313 L 120.5 211.324219 L 121.851563 212.109375 C 121.039063 212.441406 120.5 213.253906 120.5 214.320313 L 120.5 316.199219 C 120.5 317.058594 120.804688 317.648438 121.296875 317.90625 C 121.480469 318 121.6875 318.050781 121.914063 318.050781 C 122.109375 318.050781 122.316406 318.011719 122.539063 317.933594 C 122.441406 317.980469 122.34375 318.019531 122.230469 318.054688 C 122.070313 318.105469 121.898438 318.152344 121.726563 318.191406 C 121.324219 318.273438 120.898438 318.3125 120.476563 318.3125 "/>
<path style=" stroke:none;fill-rule:nonzero;fill:rgb(74.499512%,75.299072%,75.299072%);fill-opacity:1;" d="M 257.984375 132.289063 C 257.980469 132.285156 257.980469 132.28125 257.976563 132.277344 L 258.328125 131.742188 L 257.984375 132.289063 "/>
<path style=" stroke:none;fill-rule:nonzero;fill:rgb(12.199402%,72.499084%,61.999512%);fill-opacity:1;" d="M 121.296875 317.90625 C 120.804688 317.648438 120.5 317.058594 120.5 316.199219 L 120.5 314.503906 L 173.1875 234.578125 L 120.5 211.324219 L 182.050781 234.320313 C 183.195313 234.746094 184.378906 234.949219 185.546875 234.949219 C 188.851563 234.949219 192.035156 233.308594 193.921875 230.410156 L 203.808594 215.269531 L 257.976563 132.277344 C 257.980469 132.28125 257.980469 132.285156 257.984375 132.289063 L 205.777344 215.835938 L 258.597656 236.507813 C 258.585938 237.34375 258.277344 238.277344 257.785156 239.101563 L 205.632813 216.070313 L 194.144531 234.453125 C 192.261719 237.457031 189.011719 239.15625 185.65625 239.15625 C 184.300781 239.15625 182.929688 238.882813 181.621094 238.300781 L 173.441406 234.691406 L 121.296875 317.90625 "/>
<path style=" stroke:none;fill-rule:nonzero;fill:rgb(97.599792%,97.299194%,97.299194%);fill-opacity:1;" d="M 230.164063 94.363281 L 230.164063 328.265625 C 230.164063 331.027344 232.105469 332.148438 234.496094 330.765625 L 339.574219 270.101563 C 341.964844 268.71875 343.90625 265.359375 343.90625 262.601563 L 343.90625 28.695313 C 343.90625 25.933594 341.964844 24.816406 339.574219 26.195313 L 234.496094 86.863281 C 232.105469 88.242188 230.164063 91.601563 230.164063 94.363281 "/>
<path style=" stroke:none;fill-rule:nonzero;fill:rgb(84.298706%,85.099792%,84.698486%);fill-opacity:1;" d="M 230.164063 94.363281 L 229.582031 94.363281 L 229.582031 328.265625 C 229.582031 329.339844 229.847656 330.246094 230.375 330.910156 C 230.898438 331.578125 231.695313 331.949219 232.5625 331.941406 C 233.273438 331.941406 234.027344 331.714844 234.789063 331.273438 L 339.867188 270.605469 C 341.179688 269.84375 342.316406 268.589844 343.144531 267.160156 C 343.96875 265.726563 344.488281 264.117188 344.488281 262.601563 L 344.488281 28.695313 C 344.488281 27.621094 344.222656 26.714844 343.695313 26.050781 C 343.171875 25.386719 342.375 25.015625 341.507813 25.019531 C 340.796875 25.019531 340.046875 25.25 339.28125 25.691406 L 234.203125 86.355469 C 232.890625 87.117188 231.757813 88.371094 230.929688 89.800781 C 230.101563 91.234375 229.585938 92.84375 229.582031 94.363281 L 230.75 94.363281 C 230.746094 93.117188 231.199219 91.671875 231.941406 90.386719 C 232.679688 89.101563 233.710938 87.988281 234.789063 87.367188 L 339.867188 26.703125 C 340.492188 26.339844 341.054688 26.1875 341.507813 26.191406 C 342.0625 26.195313 342.464844 26.390625 342.78125 26.78125 C 343.097656 27.175781 343.320313 27.8125 343.320313 28.695313 L 343.320313 262.601563 C 343.324219 263.84375 342.871094 265.292969 342.128906 266.574219 C 341.390625 267.859375 340.359375 268.972656 339.28125 269.59375 L 234.203125 330.257813 C 233.578125 330.621094 233.015625 330.773438 232.5625 330.773438 C 232.007813 330.765625 231.609375 330.570313 231.289063 330.179688 C 230.972656 329.789063 230.75 329.152344 230.75 328.265625 L 230.75 94.363281 L 230.164063 94.363281 "/>
<path style=" stroke:none;fill-rule:nonzero;fill:rgb(25.099182%,34.098816%,37.998962%);fill-opacity:1;" d="M 236.257813 98.722656 C 236.257813 98.074219 236.757813 97.257813 237.382813 96.898438 L 249.351563 89.988281 C 249.972656 89.632813 250.476563 89.863281 250.476563 90.511719 C 250.476563 91.160156 249.972656 91.976563 249.351563 92.335938 L 237.382813 99.242188 C 236.757813 99.601563 236.257813 99.367188 236.257813 98.722656 "/>
<path style=" stroke:none;fill-rule:nonzero;fill:rgb(25.099182%,34.098816%,37.998962%);fill-opacity:1;" d="M 236.257813 103.378906 C 236.257813 102.730469 236.757813 101.914063 237.382813 101.554688 L 249.351563 94.648438 C 249.972656 94.289063 250.476563 94.523438 250.476563 95.171875 C 250.476563 95.816406 249.972656 96.632813 249.351563 96.992188 L 237.382813 103.902344 C 236.757813 104.261719 236.257813 104.027344 236.257813 103.378906 "/>
<path style=" stroke:none;fill-rule:nonzero;fill:rgb(25.099182%,34.098816%,37.998962%);fill-opacity:1;" d="M 236.257813 108.035156 C 236.257813 107.390625 236.757813 106.574219 237.382813 106.214844 L 249.351563 99.304688 C 249.972656 98.945313 250.476563 99.179688 250.476563 99.828125 C 250.476563 100.476563 249.972656 101.292969 249.351563 101.652344 L 237.382813 108.558594 C 236.757813 108.917969 236.257813 108.683594 236.257813 108.035156 "/>
<path style=" stroke:none;fill-rule:nonzero;fill:rgb(18.798828%,27.099609%,30.198669%);fill-opacity:1;" d="M 329.453125 53.933594 C 327.945313 54.804688 326.71875 54.097656 326.71875 52.355469 C 326.71875 50.609375 327.945313 48.492188 329.453125 47.621094 C 330.964844 46.75 332.1875 47.457031 332.1875 49.199219 C 332.1875 50.941406 330.964844 53.058594 329.453125 53.933594 Z M 335.777344 48.058594 L 335.777344 46.191406 C 335.777344 46.078125 335.695313 46.023438 335.59375 46.070313 L 334.15625 46.71875 C 334.054688 46.765625 333.949219 46.714844 333.914063 46.609375 C 333.832031 46.34375 333.722656 46.105469 333.59375 45.894531 C 333.535156 45.800781 333.523438 45.644531 333.574219 45.546875 L 334.53125 43.609375 C 334.582031 43.511719 334.542969 43.386719 334.445313 43.328125 L 333.40625 42.726563 C 333.308594 42.671875 333.179688 42.703125 333.117188 42.796875 L 331.921875 44.59375 C 331.859375 44.6875 331.722656 44.753906 331.609375 44.75 C 331.363281 44.742188 331.101563 44.769531 330.832031 44.828125 C 330.722656 44.851563 330.628906 44.785156 330.613281 44.675781 L 330.457031 43.105469 C 330.445313 42.992188 330.359375 42.949219 330.261719 43.003906 L 328.644531 43.9375 C 328.546875 43.996094 328.460938 44.128906 328.453125 44.242188 L 328.289063 46.039063 C 328.28125 46.152344 328.203125 46.300781 328.121094 46.378906 C 327.804688 46.667969 327.507813 46.984375 327.222656 47.328125 C 327.152344 47.414063 327.011719 47.453125 326.90625 47.417969 L 325.867188 47.054688 C 325.761719 47.019531 325.628906 47.066406 325.574219 47.164063 L 324.386719 49.222656 C 324.328125 49.320313 324.351563 49.457031 324.4375 49.53125 L 325.269531 50.246094 C 325.355469 50.320313 325.390625 50.464844 325.351563 50.566406 C 325.199219 50.984375 325.070313 51.40625 324.976563 51.820313 C 324.953125 51.929688 324.863281 52.070313 324.769531 52.136719 L 323.292969 53.175781 C 323.203125 53.238281 323.128906 53.382813 323.128906 53.492188 L 323.128906 55.363281 C 323.128906 55.472656 323.210938 55.527344 323.3125 55.480469 L 324.753906 54.832031 C 324.851563 54.785156 324.957031 54.835938 324.992188 54.941406 C 325.074219 55.207031 325.183594 55.445313 325.3125 55.65625 C 325.371094 55.753906 325.382813 55.90625 325.335938 56.007813 L 324.375 57.941406 C 324.324219 58.039063 324.363281 58.167969 324.460938 58.222656 L 325.503906 58.824219 C 325.597656 58.878906 325.726563 58.851563 325.789063 58.757813 L 326.984375 56.957031 C 327.046875 56.863281 327.183594 56.800781 327.296875 56.804688 C 327.546875 56.808594 327.804688 56.78125 328.074219 56.722656 C 328.183594 56.699219 328.28125 56.765625 328.292969 56.875 L 328.449219 58.445313 C 328.460938 58.558594 328.546875 58.601563 328.644531 58.546875 L 330.261719 57.613281 C 330.359375 57.558594 330.445313 57.421875 330.453125 57.3125 L 330.617188 55.511719 C 330.628906 55.398438 330.703125 55.25 330.785156 55.175781 C 331.101563 54.886719 331.402344 54.566406 331.683594 54.222656 C 331.753906 54.136719 331.894531 54.097656 332.003906 54.132813 L 333.039063 54.496094 C 333.144531 54.53125 333.277344 54.484375 333.332031 54.386719 L 334.519531 52.328125 C 334.578125 52.230469 334.554688 52.09375 334.46875 52.023438 L 333.636719 51.304688 C 333.550781 51.230469 333.515625 51.089844 333.554688 50.984375 C 333.710938 50.566406 333.835938 50.148438 333.929688 49.730469 C 333.953125 49.621094 334.046875 49.480469 334.136719 49.414063 L 335.613281 48.375 C 335.703125 48.3125 335.777344 48.171875 335.777344 48.058594 "/>
<path style=" stroke:none;fill-rule:nonzero;fill:rgb(25.099182%,34.098816%,37.998962%);fill-opacity:1;" d="M 287.035156 94.15625 C 299.3125 87.070313 309.265625 92.816406 309.265625 106.992188 C 309.265625 121.171875 299.3125 138.40625 287.035156 145.496094 C 274.757813 152.585938 264.804688 146.839844 264.804688 132.660156 C 264.804688 118.484375 274.757813 101.246094 287.035156 94.15625 "/>
<path style=" stroke:none;fill-rule:nonzero;fill:rgb(32.899475%,75.698853%,69.398499%);fill-opacity:1;" d="M 286.878906 105.316406 C 290.863281 103.015625 294.089844 104.878906 294.089844 109.480469 C 294.089844 114.078125 290.863281 119.671875 286.878906 121.972656 C 282.894531 124.269531 279.667969 122.40625 279.667969 117.808594 C 279.667969 113.207031 282.894531 107.613281 286.878906 105.316406 "/>
<path style=" stroke:none;fill-rule:nonzero;fill:rgb(32.899475%,75.698853%,69.398499%);fill-opacity:1;" d="M 301.09375 129.839844 C 301.09375 122.28125 295.785156 119.21875 289.242188 123 L 285.152344 125.359375 C 278.609375 129.136719 273.304688 138.328125 273.304688 145.882813 L 273.304688 147.945313 C 274.484375 148.335938 275.765625 148.53125 277.125 148.535156 C 280.109375 148.539063 283.46875 147.558594 287.035156 145.496094 C 292.371094 142.417969 297.261719 137.421875 301.09375 131.59375 L 301.09375 129.839844 "/>
<path style=" stroke:none;fill-rule:nonzero;fill:rgb(32.899475%,75.698853%,69.398499%);fill-opacity:1;" d="M 266.96875 166.589844 L 307.101563 143.421875 C 308.296875 142.730469 309.265625 143.222656 309.265625 144.515625 C 309.265625 145.8125 308.296875 147.421875 307.101563 148.113281 L 266.96875 171.28125 C 265.773438 171.972656 264.804688 171.480469 264.804688 170.1875 C 264.804688 168.890625 265.773438 167.28125 266.96875 166.589844 "/>
<path style=" stroke:none;fill-rule:nonzero;fill:rgb(25.099182%,34.098816%,37.998962%);fill-opacity:1;" d="M 262.664063 183.164063 L 311.40625 154.992188 C 312.601563 154.300781 313.574219 154.789063 313.574219 156.085938 C 313.574219 157.382813 312.601563 158.992188 311.40625 159.679688 L 262.664063 187.855469 C 261.46875 188.546875 260.496094 188.054688 260.496094 186.757813 C 260.496094 185.464844 261.46875 183.855469 262.664063 183.164063 "/>
<path style=" stroke:none;fill-rule:nonzero;fill:rgb(18.798828%,27.099609%,30.198669%);fill-opacity:1;" d="M 312.707031 177.703125 L 326.355469 169.820313 C 327.074219 169.40625 327.65625 169.59375 327.65625 170.242188 C 327.65625 170.890625 327.074219 171.753906 326.355469 172.164063 L 312.707031 180.046875 C 311.988281 180.460938 311.40625 180.273438 311.40625 179.625 C 311.40625 178.976563 311.988281 178.117188 312.707031 177.703125 "/>
<path style=" stroke:none;fill-rule:nonzero;fill:rgb(32.899475%,75.698853%,69.398499%);fill-opacity:1;" d="M 244.519531 212.386719 L 264.558594 200.816406 C 265.757813 200.125 266.726563 200.683594 266.726563 202.066406 L 266.726563 215.828125 C 266.726563 217.207031 265.757813 218.886719 264.558594 219.578125 L 244.519531 231.148438 C 243.324219 231.839844 242.351563 231.277344 242.351563 229.898438 L 242.351563 216.136719 C 242.351563 214.757813 243.324219 213.078125 244.519531 212.386719 "/>
<path style=" stroke:none;fill-rule:nonzero;fill:rgb(97.599792%,97.299194%,97.299194%);fill-opacity:1;" d="M 247.714844 214.308594 L 261.363281 206.429688 C 262.082031 206.015625 262.664063 206.203125 262.664063 206.851563 C 262.664063 207.5 262.082031 208.359375 261.363281 208.773438 L 247.714844 216.65625 C 246.996094 217.070313 246.414063 216.882813 246.414063 216.234375 C 246.414063 215.585938 246.996094 214.726563 247.714844 214.308594 "/>
<path style=" stroke:none;fill-rule:nonzero;fill:rgb(97.599792%,97.299194%,97.299194%);fill-opacity:1;" d="M 246.414063 221.25 L 246.414063 225.285156 C 246.414063 226.113281 246.996094 226.449219 247.714844 226.035156 L 261.363281 218.15625 C 262.082031 217.742188 262.664063 216.734375 262.664063 215.90625 L 262.664063 211.871094 C 262.664063 211.039063 262.082031 210.703125 261.363281 211.121094 L 247.714844 219 C 246.996094 219.414063 246.414063 220.421875 246.414063 221.25 "/>
<path style=" stroke:none;fill-rule:nonzero;fill:rgb(32.899475%,75.698853%,69.398499%);fill-opacity:1;" d="M 277.015625 193.625 L 297.054688 182.054688 C 298.253906 181.363281 299.222656 181.921875 299.222656 183.304688 L 299.222656 197.066406 C 299.222656 198.445313 298.253906 200.125 297.054688 200.816406 L 277.015625 212.386719 C 275.816406 213.078125 274.847656 212.519531 274.847656 211.136719 L 274.847656 197.375 C 274.847656 195.996094 275.816406 194.316406 277.015625 193.625 "/>
<path style=" stroke:none;fill-rule:nonzero;fill:rgb(97.599792%,97.299194%,97.299194%);fill-opacity:1;" d="M 280.210938 195.550781 L 293.859375 187.667969 C 294.578125 187.253906 295.160156 187.441406 295.160156 188.089844 C 295.160156 188.738281 294.578125 189.597656 293.859375 190.015625 L 280.210938 197.894531 C 279.492188 198.308594 278.910156 198.117188 278.910156 197.472656 C 278.910156 196.824219 279.492188 195.964844 280.210938 195.550781 "/>
<path style=" stroke:none;fill-rule:nonzero;fill:rgb(97.599792%,97.299194%,97.299194%);fill-opacity:1;" d="M 278.910156 202.488281 L 278.910156 206.523438 C 278.910156 207.351563 279.492188 207.6875 280.210938 207.273438 L 293.859375 199.394531 C 294.578125 198.980469 295.160156 197.972656 295.160156 197.144531 L 295.160156 193.109375 C 295.160156 192.28125 294.578125 191.945313 293.859375 192.359375 L 280.210938 200.238281 C 279.492188 200.652344 278.910156 201.660156 278.910156 202.488281 "/>
<path style=" stroke:none;fill-rule:nonzero;fill:rgb(32.899475%,75.698853%,69.398499%);fill-opacity:1;" d="M 309.511719 174.863281 L 329.550781 163.292969 C 330.746094 162.601563 331.71875 163.160156 331.71875 164.542969 L 331.71875 178.304688 C 331.71875 179.683594 330.75 181.363281 329.550781 182.054688 L 309.511719 193.625 C 308.316406 194.316406 307.34375 193.757813 307.34375 192.375 L 307.34375 178.613281 C 307.34375 177.230469 308.316406 175.554688 309.511719 174.863281 "/>
<path style=" stroke:none;fill-rule:nonzero;fill:rgb(97.599792%,97.299194%,97.299194%);fill-opacity:1;" d="M 312.707031 176.785156 L 326.355469 168.90625 C 327.074219 168.492188 327.65625 168.679688 327.65625 169.328125 C 327.65625 169.976563 327.074219 170.835938 326.355469 171.25 L 312.707031 179.132813 C 311.988281 179.546875 311.40625 179.355469 311.40625 178.710938 C 311.40625 178.0625 311.988281 177.199219 312.707031 176.785156 "/>
<path style=" stroke:none;fill-rule:nonzero;fill:rgb(97.599792%,97.299194%,97.299194%);fill-opacity:1;" d="M 311.40625 183.726563 L 311.40625 187.761719 C 311.40625 188.589844 311.988281 188.925781 312.707031 188.511719 L 326.355469 180.632813 C 327.074219 180.21875 327.65625 179.210938 327.65625 178.382813 L 327.65625 174.347656 C 327.65625 173.515625 327.074219 173.183594 326.355469 173.597656 L 312.707031 181.476563 C 311.988281 181.890625 311.40625 182.898438 311.40625 183.726563 "/>
<path style=" stroke:none;fill-rule:nonzero;fill:rgb(84.298706%,85.099792%,84.698486%);fill-opacity:1;" d="M 246.683594 243.96875 L 327.386719 197.375 C 329.777344 195.992188 331.71875 196.976563 331.71875 199.566406 C 331.71875 202.15625 329.777344 205.375 327.386719 206.757813 L 246.683594 253.351563 C 244.292969 254.730469 242.351563 253.75 242.351563 251.160156 C 242.351563 248.570313 244.292969 245.351563 246.683594 243.96875 "/>
<path style=" stroke:none;fill-rule:nonzero;fill:rgb(84.298706%,85.099792%,84.698486%);fill-opacity:1;" d="M 246.683594 262.730469 L 327.386719 216.136719 C 329.777344 214.757813 331.71875 215.738281 331.71875 218.328125 C 331.71875 220.917969 329.777344 224.136719 327.386719 225.519531 L 246.683594 272.113281 C 244.292969 273.492188 242.351563 272.511719 242.351563 269.921875 C 242.351563 267.332031 244.292969 264.113281 246.683594 262.730469 "/>
<path style=" stroke:none;fill-rule:nonzero;fill:rgb(32.899475%,75.698853%,69.398499%);fill-opacity:1;" d="M 272.953125 271.015625 L 301.117188 254.757813 C 302.3125 254.066406 303.28125 254.625 303.28125 256.007813 L 303.285156 265.078125 C 303.285156 266.457031 302.3125 268.136719 301.117188 268.828125 L 272.953125 285.089844 C 271.757813 285.777344 270.789063 285.21875 270.789063 283.839844 L 270.789063 274.765625 C 270.789063 273.386719 271.757813 271.707031 272.953125 271.015625 "/>
<path style=" stroke:none;fill-rule:nonzero;fill:rgb(97.599792%,97.299194%,97.299194%);fill-opacity:1;" d="M 248.445313 245.347656 C 247.324219 245.996094 246.414063 247.570313 246.414063 248.867188 C 246.414063 250.160156 247.324219 250.6875 248.445313 250.039063 C 249.566406 249.390625 250.476563 247.816406 250.476563 246.519531 C 250.476563 245.226563 249.566406 244.699219 248.445313 245.347656 "/>
<path style=" stroke:none;fill-rule:nonzero;fill:rgb(97.599792%,97.299194%,97.299194%);fill-opacity:1;" d="M 254.882813 241.628906 C 253.757813 242.273438 252.847656 243.851563 252.847656 245.144531 C 252.847656 246.441406 253.757813 246.964844 254.882813 246.320313 C 256.003906 245.671875 256.910156 244.097656 256.910156 242.800781 C 256.910156 241.503906 256.003906 240.980469 254.882813 241.628906 "/>
<path style=" stroke:none;fill-rule:nonzero;fill:rgb(97.599792%,97.299194%,97.299194%);fill-opacity:1;" d="M 261.316406 237.90625 C 260.191406 238.554688 259.285156 240.128906 259.285156 241.425781 C 259.285156 242.722656 260.191406 243.246094 261.316406 242.597656 C 262.4375 241.949219 263.34375 240.375 263.34375 239.078125 C 263.34375 237.785156 262.4375 237.261719 261.316406 237.90625 "/>
<path style=" stroke:none;fill-rule:nonzero;fill:rgb(97.599792%,97.299194%,97.299194%);fill-opacity:1;" d="M 267.75 234.1875 C 266.628906 234.835938 265.71875 236.410156 265.71875 237.707031 C 265.71875 239 266.628906 239.527344 267.75 238.878906 C 268.871094 238.230469 269.78125 236.65625 269.78125 235.359375 C 269.78125 234.066406 268.871094 233.539063 267.75 234.1875 "/>
<path style=" stroke:none;fill-rule:nonzero;fill:rgb(97.599792%,97.299194%,97.299194%);fill-opacity:1;" d="M 274.183594 230.46875 C 273.0625 231.113281 272.152344 232.691406 272.152344 233.984375 C 272.152344 235.28125 273.0625 235.804688 274.183594 235.15625 C 275.304688 234.511719 276.214844 232.9375 276.214844 231.640625 C 276.214844 230.34375 275.304688 229.820313 274.183594 230.46875 "/>
<path style=" stroke:none;fill-rule:nonzero;fill:rgb(97.599792%,97.299194%,97.299194%);fill-opacity:1;" d="M 280.617188 226.746094 C 279.496094 227.394531 278.585938 228.96875 278.585938 230.265625 C 278.585938 231.5625 279.496094 232.085938 280.617188 231.4375 C 281.738281 230.789063 282.648438 229.214844 282.648438 227.921875 C 282.648438 226.625 281.738281 226.097656 280.617188 226.746094 "/>
<path style=" stroke:none;fill-rule:nonzero;fill:rgb(97.599792%,97.299194%,97.299194%);fill-opacity:1;" d="M 287.050781 223.027344 C 285.929688 223.675781 285.019531 225.25 285.019531 226.546875 C 285.019531 227.839844 285.929688 228.363281 287.050781 227.71875 C 288.171875 227.070313 289.082031 225.496094 289.082031 224.199219 C 289.082031 222.902344 288.171875 222.378906 287.050781 223.027344 "/>
<path style=" stroke:none;fill-rule:nonzero;fill:rgb(97.599792%,97.299194%,97.299194%);fill-opacity:1;" d="M 248.445313 264.128906 C 247.324219 264.777344 246.414063 266.351563 246.414063 267.648438 C 246.414063 268.945313 247.324219 269.46875 248.445313 268.820313 C 249.566406 268.171875 250.476563 266.597656 250.476563 265.304688 C 250.476563 264.007813 249.566406 263.480469 248.445313 264.128906 "/>
<path style=" stroke:none;fill-rule:nonzero;fill:rgb(97.599792%,97.299194%,97.299194%);fill-opacity:1;" d="M 254.882813 260.410156 C 253.757813 261.058594 252.847656 262.632813 252.847656 263.929688 C 252.847656 265.222656 253.757813 265.75 254.882813 265.101563 C 256.003906 264.453125 256.910156 262.878906 256.910156 261.582031 C 256.910156 260.285156 256.003906 259.761719 254.882813 260.410156 "/>
<path style=" stroke:none;fill-rule:nonzero;fill:rgb(97.599792%,97.299194%,97.299194%);fill-opacity:1;" d="M 261.316406 256.691406 C 260.191406 257.335938 259.285156 258.910156 259.285156 260.207031 C 259.285156 261.503906 260.191406 262.027344 261.316406 261.382813 C 262.4375 260.734375 263.34375 259.15625 263.34375 257.863281 C 263.34375 256.566406 262.4375 256.042969 261.316406 256.691406 "/>
<path style=" stroke:none;fill-rule:nonzero;fill:rgb(97.599792%,97.299194%,97.299194%);fill-opacity:1;" d="M 267.75 252.96875 C 266.628906 253.617188 265.71875 255.191406 265.71875 256.488281 C 265.71875 257.78125 266.628906 258.308594 267.75 257.660156 C 268.871094 257.011719 269.78125 255.4375 269.78125 254.140625 C 269.78125 252.847656 268.871094 252.320313 267.75 252.96875 "/>
<path style=" stroke:none;fill-rule:nonzero;fill:rgb(97.599792%,97.299194%,97.299194%);fill-opacity:1;" d="M 274.183594 249.25 C 273.0625 249.898438 272.152344 251.472656 272.152344 252.769531 C 272.152344 254.0625 273.0625 254.589844 274.183594 253.941406 C 275.304688 253.292969 276.214844 251.71875 276.214844 250.421875 C 276.214844 249.128906 275.304688 248.601563 274.183594 249.25 "/>
<path style=" stroke:none;fill-rule:nonzero;fill:rgb(97.599792%,97.299194%,97.299194%);fill-opacity:1;" d="M 280.617188 245.527344 C 279.496094 246.175781 278.585938 247.753906 278.585938 249.046875 C 278.585938 250.34375 279.496094 250.867188 280.617188 250.21875 C 281.738281 249.574219 282.648438 247.996094 282.648438 246.703125 C 282.648438 245.40625 281.738281 244.882813 280.617188 245.527344 "/>
<path style=" stroke:none;fill-rule:nonzero;fill:rgb(97.599792%,97.299194%,97.299194%);fill-opacity:1;" d="M 287.050781 241.808594 C 285.929688 242.457031 285.019531 244.03125 285.019531 245.328125 C 285.019531 246.621094 285.929688 247.148438 287.050781 246.5 C 288.171875 245.851563 289.082031 244.277344 289.082031 242.980469 C 289.082031 241.6875 288.171875 241.160156 287.050781 241.808594 "/>
<path style=" stroke:none;fill-rule:nonzero;fill:rgb(25.099182%,34.098816%,37.998962%);fill-opacity:1;" d="M 397.960938 216.703125 C 395.4375 216.703125 392.773438 217.96875 391.132813 218.914063 C 379.714844 225.511719 370.0625 243.222656 370.0625 257.59375 C 370.0625 263.40625 371.695313 267.824219 374.429688 269.402344 C 377.539063 271.195313 381.859375 269.234375 384.160156 267.910156 C 395.578125 261.316406 405.226563 243.605469 405.226563 229.234375 C 405.226563 223.417969 403.597656 219.003906 400.863281 217.425781 C 399.972656 216.910156 398.976563 216.703125 397.960938 216.703125 Z M 377.300781 284.085938 C 373.792969 284.085938 370.464844 283.222656 367.453125 281.484375 C 360.246094 277.320313 356.113281 268.613281 356.113281 257.59375 C 356.113281 238.210938 368.433594 215.914063 384.160156 206.835938 C 392.628906 201.945313 401.035156 201.414063 407.839844 205.34375 C 415.046875 209.503906 419.179688 218.210938 419.179688 229.234375 C 419.179688 248.617188 406.859375 270.914063 391.132813 279.992188 C 386.414063 282.714844 381.714844 284.085938 377.300781 284.085938 "/>
<path style=" stroke:none;fill-rule:nonzero;fill:rgb(18.798828%,27.099609%,30.198669%);fill-opacity:1;" d="M 407.722656 232.339844 C 407.722656 221.449219 400.863281 217.425781 400.863281 217.425781 C 403.597656 219.003906 405.226563 223.417969 405.226563 229.234375 C 405.226563 243.605469 395.578125 261.316406 384.160156 267.910156 C 381.859375 269.234375 377.539063 271.195313 374.429688 269.402344 C 374.429688 269.402344 380.214844 272.992188 388.214844 268.632813 C 399.789063 262.316406 407.722656 246.707031 407.722656 232.339844 "/>
<path style=" stroke:none;fill-rule:nonzero;fill:rgb(18.798828%,27.099609%,30.198669%);fill-opacity:1;" d="M 396.722656 96.253906 C 396.722656 92.269531 393.492188 89.039063 389.507813 89.039063 C 385.523438 89.039063 382.296875 92.269531 382.296875 96.253906 L 382.296875 210.980469 C 382.296875 212.046875 383 213.109375 384.40625 213.921875 C 387.222656 215.550781 391.792969 215.550781 394.609375 213.921875 C 396.015625 213.109375 396.722656 212.046875 396.722656 210.980469 L 396.722656 96.269531 L 396.71875 96.269531 L 396.722656 96.253906 "/>
<path style=" stroke:none;fill-rule:nonzero;fill:rgb(25.099182%,34.098816%,37.998962%);fill-opacity:1;" d="M 390.960938 121.882813 C 390.960938 119.226563 389.09375 115.996094 386.796875 114.667969 C 385.625 113.992188 384.570313 113.945313 383.8125 114.40625 L 383.808594 114.398438 L 366.011719 124.652344 L 365.582031 124.910156 L 365.40625 125.011719 C 365.101563 125.21875 364.8125 125.453125 364.554688 125.710938 C 363.480469 126.777344 362.8125 128.261719 362.8125 129.894531 C 362.8125 132.128906 364.054688 134.078125 365.878906 135.082031 C 366.71875 135.535156 367.671875 135.789063 368.699219 135.789063 C 369.714844 135.789063 370.679688 135.535156 371.507813 135.082031 C 371.621094 135.019531 371.734375 134.949219 371.847656 134.886719 L 389.757813 124.570313 L 389.757813 124.566406 C 390.5 124.128906 390.960938 123.203125 390.960938 121.882813 "/>
<path style=" stroke:none;fill-rule:nonzero;fill:rgb(25.099182%,34.098816%,37.998962%);fill-opacity:1;" d="M 390.960938 150.609375 C 390.960938 147.953125 389.09375 144.722656 386.796875 143.394531 C 385.625 142.71875 384.570313 142.671875 383.8125 143.132813 L 383.808594 143.125 L 362.949219 155.105469 L 362.519531 155.359375 L 362.34375 155.464844 C 362.039063 155.667969 361.75 155.90625 361.496094 156.160156 C 360.417969 157.226563 359.753906 158.714844 359.753906 160.34375 C 359.753906 162.578125 360.992188 164.527344 362.816406 165.535156 C 363.65625 165.984375 364.613281 166.242188 365.636719 166.242188 C 366.652344 166.242188 367.617188 165.984375 368.445313 165.535156 C 368.558594 165.472656 368.671875 165.402344 368.785156 165.339844 L 389.757813 153.296875 L 389.757813 153.292969 C 390.5 152.855469 390.960938 151.925781 390.960938 150.609375 "/>
</g>
</svg>
