<svg xmlns="http://www.w3.org/2000/svg" width="661" height="362"><path fill="#f2f8fc" d="M109.893 91.137h55.304c9.972 0 18.055 8.092 18.055 18.073s-8.083 18.072-18.055 18.072h-84.29c-9.972 0-18.056 8.092-18.056 18.073s8.084 18.072 18.056 18.072h35.139c9.971 0 18.055 8.092 18.055 18.073s-8.084 18.072-18.055 18.072h-35.14c-9.971 0-18.055 8.092-18.055 18.073s8.084 18.072 18.056 18.072h64.228c9.972 0 18.056 8.092 18.056 18.073s-8.084 18.072-18.056 18.072H134.07c-9.972 0-18.055 8.092-18.055 18.073s8.083 18.073 18.055 18.073h499.847c9.971 0 18.055-8.092 18.055-18.073s-8.084-18.073-18.055-18.073h-30.37c-9.972 0-18.056-8.09-18.056-18.072 0-9.981 8.084-18.073 18.056-18.073h30.37c9.971 0 18.055-8.091 18.055-18.072s-8.084-18.073-18.055-18.073h-61.604c-9.972 0-18.056-8.091-18.056-18.072s8.084-18.073 18.056-18.073h70.631c9.972 0 18.056-8.09 18.056-18.072 0-9.981-8.084-18.073-18.056-18.073h-81.527c-9.972 0-18.056-8.09-18.056-18.072 0-9.981 8.084-18.073 18.056-18.073h16.464c9.972 0 18.055-8.091 18.055-18.072s-8.083-18.073-18.055-18.073H109.893c-9.972 0-18.056 8.092-18.056 18.073 0 9.98 8.084 18.072 18.056 18.072zm-91.847 72.959h.669c9.972 0 18.056-8.09 18.056-18.072v-.67c0-9.98-8.084-18.072-18.056-18.072h-.669c-9.972 0-18.055 8.092-18.055 18.073v.669c0 9.981 8.084 18.072 18.055 18.072z"/><path fill="#4cbeb5" d="M289.622 262.472c-44.91-44.91-44.91-117.724 0-162.634 44.91-44.91 117.724-44.91 162.634 0 44.91 44.91 44.91 117.724 0 162.634-44.91 44.91-117.724 44.91-162.634 0z" opacity=".2"/><path fill="none" stroke="#677089" stroke-dasharray="8 8" stroke-linecap="round" stroke-linejoin="round" stroke-miterlimit="20" stroke-width="3" d="M484.606 312.39c37.37-34.806 59.763-85.203 57.184-140.212a182.479 182.479 0 0 0-2.717-23.944M289.975 345.617c24.546 10.735 51.875 16.134 80.449 14.793 1.507-.07 3.01-.16 4.508-.267M234.047 54.004c-34.154 34.532-54.31 82.7-51.855 135.04.189 4.028.509 8.018.955 11.967"/><path fill="#677089" d="M242.229 112.198a3.48 3.48 0 0 1-6.96 0 3.481 3.481 0 0 1 3.48-3.474 3.481 3.481 0 0 1 3.48 3.474zm2.949 0c0-3.539-2.884-6.417-6.429-6.417-3.544 0-6.428 2.878-6.428 6.417 0 3.538 2.884 6.416 6.428 6.416 3.545 0 6.429-2.878 6.429-6.416z"/><path fill="#4cbeb5" d="M139.99 239.78c-3.308 0-5.999-2.686-5.999-5.988 0-3.302 2.69-5.988 6-5.988 3.308 0 6 2.686 6 5.988 0 3.302-2.692 5.989-6 5.989z"/><path fill="#677089" d="M168.715 109.745a3.928 3.928 0 0 1-3.932 3.925 3.928 3.928 0 0 1-3.931-3.925 3.928 3.928 0 0 1 3.93-3.924 3.928 3.928 0 0 1 3.933 3.924z"/><path fill="#4cbeb5" d="M512.99 159.78c-3.308 0-5.999-2.686-5.999-5.988 0-3.302 2.69-5.988 6-5.988 3.308 0 6 2.686 6 5.988 0 3.302-2.692 5.989-6 5.989zm19 130.416a3.41 3.41 0 0 1-3.408-3.404 3.41 3.41 0 0 1 6.819 0 3.41 3.41 0 0 1-3.41 3.404z"/><path fill="#677089" d="M607.715 254.745a3.928 3.928 0 0 1-3.932 3.925 3.928 3.928 0 0 1-3.931-3.925 3.928 3.928 0 0 1 3.93-3.924 3.928 3.928 0 0 1 3.933 3.924zm-275.262-66c0 4.229-3.434 7.656-7.671 7.656-4.234 0-7.669-3.427-7.669-7.656 0-4.229 3.435-7.656 7.669-7.656 4.237 0 7.671 3.427 7.671 7.656zm245.776 10.453a3.48 3.48 0 0 1-6.96 0 3.481 3.481 0 0 1 3.48-3.474 3.481 3.481 0 0 1 3.48 3.474zm2.949 0c0-3.539-2.884-6.417-6.429-6.417-3.544 0-6.428 2.878-6.428 6.417 0 3.538 2.884 6.416 6.428 6.416 3.545 0 6.429-2.878 6.429-6.416zm-218.949 91a3.48 3.48 0 0 1-6.96 0 3.481 3.481 0 0 1 3.48-3.474 3.481 3.481 0 0 1 3.48 3.474zm2.949 0c0-3.539-2.884-6.417-6.429-6.417-3.544 0-6.428 2.878-6.428 6.417 0 3.538 2.884 6.416 6.428 6.416 3.545 0 6.429-2.878 6.429-6.416z"/><path fill="#0096ff" d="M488.825 236.27H371.273c-2.89 0-5.232-1.793-5.232-4.005v-52.1c0-2.212 2.343-4.005 5.232-4.005h117.552c2.89 0 5.232 1.793 5.232 4.005v52.1c0 2.212-2.342 4.006-5.232 4.006z"/><path fill="none" stroke="#677089" stroke-linecap="round" stroke-linejoin="round" stroke-miterlimit="20" stroke-width="3" d="M488.825 236.27H371.273c-2.89 0-5.232-1.793-5.232-4.005v-52.1c0-2.212 2.343-4.005 5.232-4.005h117.552c2.89 0 5.232 1.793 5.232 4.005v52.1c0 2.212-2.342 4.006-5.232 4.006z"/><path fill="#fff" d="M408.424 354.523s-.139-4.327-.424-6.987c-.588-5.49-2.545-9.868-4.61-12.704-15.617-21.449-15.132-27.236-19.263-44.372a332.16 332.16 0 0 1-1.89-8.428c-.371-1.795-.438-6.232 4.54-7.76 5.728-1.759 8.796 4.574 9.894 8.084 4.98 15.914 9.94 18.563 9.94 18.563h-.001v-64.272c0-3.933.937-10.037 7.717-10.037 6.06 0 7.752 5.178 7.752 9.783v37.618c0-4.604 3.414-9.535 8.739-8.723 4.375.667 6.73 3.996 6.73 7.93v1.292c0-4.273 4.917-6 7.8-5.803 4.6.313 7.67 3.626 7.67 7.9v4.692c0-4.402 2.944-7.533 8.031-7.344 4.248.157 6.39 3.64 6.39 7.682v5.058c0 5.346-.445 16.977-1.404 22.236-2.816 15.46-7.263 22.118-11 27.38-2.994 4.219-3.216 9.381-3.582 14.542-.055.78-.041 3.67-.041 3.67"/><path fill="none" stroke="#677089" stroke-linecap="round" stroke-linejoin="round" stroke-miterlimit="20" stroke-width="3" d="M408.424 354.523s-.139-4.327-.424-6.987c-.588-5.49-2.545-9.868-4.61-12.704-15.617-21.449-15.132-27.236-19.263-44.372a332.16 332.16 0 0 1-1.89-8.428c-.371-1.795-.438-6.232 4.54-7.76 5.728-1.759 8.796 4.574 9.894 8.084 4.98 15.914 9.94 18.563 9.94 18.563h-.001v-64.272c0-3.933.937-10.037 7.717-10.037 6.06 0 7.752 5.178 7.752 9.783v37.618c0-4.604 3.414-9.535 8.739-8.723 4.375.667 6.73 3.996 6.73 7.93v1.292c0-4.273 4.917-6 7.8-5.803 4.6.313 7.67 3.626 7.67 7.9v4.692c0-4.402 2.944-7.533 8.031-7.344 4.248.157 6.39 3.64 6.39 7.682v5.058c0 5.346-.445 16.977-1.404 22.236-2.816 15.46-7.263 22.118-11 27.38-2.994 4.219-3.216 9.381-3.582 14.542-.055.78-.041 3.67-.041 3.67"/><path fill="#fff" d="M468.32 207.051c1.368 0 2.412-.292 3.132-.875.72-.583 1.08-1.422 1.08-2.516 0-1.095-.36-1.933-1.08-2.517-.72-.583-1.764-.874-3.132-.874h-3.672v6.782zm.065-8.662c1.959 0 3.5.468 4.623 1.404 1.123.936 1.684 2.225 1.684 3.867 0 1.641-.561 2.93-1.684 3.866-1.124.936-2.664 1.404-4.623 1.404h-3.737v4.58h-2.16v-15.12zm-17.582 15.293c-2.016 0-3.586-.576-4.709-1.728-1.123-1.152-1.685-2.808-1.685-4.968v-8.597h2.16v8.51c0 3.24 1.419 4.86 4.255 4.86 1.383 0 2.441-.399 3.176-1.198.734-.8 1.101-2.02 1.101-3.661v-8.51h2.095v8.596c0 2.175-.561 3.834-1.684 4.979-1.124 1.145-2.693 1.717-4.71 1.717zm-11.664-15.293v15.12h-1.771l-9.072-11.275v11.275h-2.16v-15.12h1.77l9.073 11.276v-11.276zm-20.067 7.474h2.074v5.897a8.05 8.05 0 0 1-2.614 1.425 9.77 9.77 0 0 1-3.11.497c-1.526 0-2.902-.335-4.126-1.004a7.448 7.448 0 0 1-2.883-2.765c-.699-1.174-1.048-2.495-1.048-3.964 0-1.468.35-2.793 1.048-3.974a7.328 7.328 0 0 1 2.894-2.765c1.231-.662 2.617-.993 4.158-.993 1.21 0 2.308.198 3.294.594a6.724 6.724 0 0 1 2.517 1.738l-1.34 1.34c-1.21-1.167-2.67-1.75-4.384-1.75-1.152 0-2.186.248-3.1.745a5.463 5.463 0 0 0-2.15 2.074c-.518.885-.777 1.883-.777 2.991 0 1.095.26 2.085.778 2.97a5.54 5.54 0 0 0 2.149 2.085c.914.504 1.94.756 3.078.756 1.354 0 2.534-.324 3.542-.972zm-18.036-7.474h2.16v15.12h-2.16zm-9.87 15.293a10.35 10.35 0 0 1-3.295-.529c-1.058-.353-1.89-.81-2.495-1.372l.8-1.684c.576.518 1.314.94 2.214 1.263.9.324 1.825.486 2.775.486 1.253 0 2.189-.212 2.808-.637.62-.425.929-.99.929-1.696 0-.518-.17-.94-.508-1.263a3.394 3.394 0 0 0-1.252-.745c-.497-.173-1.2-.368-2.106-.584-1.138-.273-2.056-.547-2.754-.82a4.553 4.553 0 0 1-1.793-1.264c-.497-.569-.745-1.336-.745-2.3 0-.807.212-1.534.637-2.182.425-.648 1.069-1.166 1.933-1.555.864-.389 1.937-.583 3.218-.583.893 0 1.772.115 2.636.345.864.23 1.605.562 2.224.994l-.712 1.728a7.82 7.82 0 0 0-2.03-.918 7.578 7.578 0 0 0-2.118-.313c-1.224 0-2.142.223-2.754.67-.612.446-.918 1.022-.918 1.727 0 .519.173.94.519 1.264.345.324.774.576 1.285.756.511.18 1.206.37 2.084.572 1.138.274 2.052.547 2.744.821a4.618 4.618 0 0 1 1.782 1.253c.496.561.745 1.317.745 2.268a3.86 3.86 0 0 1-.648 2.17c-.432.656-1.087 1.174-1.966 1.556-.878.381-1.958.572-3.24.572zm66.679-91.766H262.992V13.84c0-6.47 5.252-11.745 11.721-11.745H446.1c6.494 0 11.746 5.275 11.746 11.745z"/><path fill="none" stroke="#0b6bbe" stroke-linecap="round" stroke-linejoin="round" stroke-miterlimit="20" stroke-width="3" d="M457.845 121.916H262.992V13.84c0-6.47 5.252-11.745 11.721-11.745H446.1c6.494 0 11.746 5.275 11.746 11.745z"/><path fill="#fff" d="M474.475 152.416H246.339c-2.34 0-3.533-2.84-1.862-4.512l18.516-25.033h194.852l18.492 25.033c1.67 1.671.501 4.512-1.862 4.512z"/><path fill="none" stroke="#0b6bbe" stroke-linecap="round" stroke-linejoin="round" stroke-miterlimit="20" stroke-width="3" d="M474.475 152.416H246.339c-2.34 0-3.533-2.84-1.862-4.512l18.516-25.033h194.852l18.492 25.033c1.67 1.671.501 4.512-1.862 4.512z"/><path fill="#fff" d="M457.845 121.916l18.492 25.988c1.67 1.671.501 4.512-1.862 4.512H246.339c-2.34 0-3.533-2.84-1.862-4.512l18.516-25.988"/><path fill="none" stroke="#677089" stroke-linecap="round" stroke-linejoin="round" stroke-miterlimit="20" stroke-width="3" d="M457.845 121.916l18.492 25.988c1.67 1.671.501 4.512-1.862 4.512H246.339c-2.34 0-3.533-2.84-1.862-4.512l18.516-25.988"/><path fill="#4cbeb5" d="M386.104 152.416l-3.01-9.339a.903.903 0 0 0-.772-.442h-43.556a.903.903 0 0 0-.77.442l-3.011 9.339z"/><path fill="none" stroke="#677089" stroke-linecap="round" stroke-linejoin="round" stroke-miterlimit="20" stroke-width="3" d="M386.104 152.416l-3.01-9.339a.903.903 0 0 0-.772-.442h-43.556a.903.903 0 0 0-.77.442l-3.011 9.339z"/><path fill="#fff" d="M266.093 132.115h188.902"/><path fill="none" stroke="#677089" stroke-linecap="round" stroke-linejoin="round" stroke-miterlimit="20" stroke-width="3" d="M266.093 132.115h188.902"/><path fill="#4cbeb5" d="M457.845 13.839v108.077H262.992V13.84c0-6.47 5.252-11.745 11.721-11.745H446.1c6.494 0 11.746 5.275 11.746 11.745z"/><path fill="none" stroke="#677089" stroke-linecap="round" stroke-linejoin="round" stroke-miterlimit="20" stroke-width="3" d="M457.845 13.839v108.077H262.992V13.84c0-6.47 5.252-11.745 11.721-11.745H446.1c6.494 0 11.746 5.275 11.746 11.745z"/><path fill="#fff" d="M277.561 112.734a5 5 0 0 1-5-5V18.108a5 5 0 0 1 5-5h165.7a5 5 0 0 1 5 5v89.626a5 5 0 0 1-5 5z"/><path fill="none" stroke="#677089" stroke-linecap="round" stroke-linejoin="round" stroke-miterlimit="20" stroke-width="3" d="M277.561 112.734a5 5 0 0 1-5-5V18.108a5 5 0 0 1 5-5h165.7a5 5 0 0 1 5 5v89.626a5 5 0 0 1-5 5z"/><path fill="#4cbeb5" d="M299.912 89.008c-4.071 0-7.277-3.453-7.003-7.515.552-8.17 1.697-16.044 5.16-20.735 2.215-3 5.699-6.41 9.317-6.402 2.967.007 6.501.018 10.59.023 3.79.005 7.36 3.638 9.608 6.834 3.274 4.655 4.334 12.356 4.85 20.308.263 4.052-2.945 7.49-7.006 7.489z"/><path fill="none" stroke="#677089" stroke-linejoin="round" stroke-miterlimit="20" stroke-width="3" d="M299.912 89.008c-4.071 0-7.277-3.453-7.003-7.515.552-8.17 1.697-16.044 5.16-20.735 2.215-3 5.699-6.41 9.317-6.402 2.967.007 6.501.018 10.59.023 3.79.005 7.36 3.638 9.608 6.834 3.274 4.655 4.334 12.356 4.85 20.308.263 4.052-2.945 7.49-7.006 7.489z"/><path fill="#fff" d="M301.764 45.387c0-6.074 4.756-10.998 10.622-10.998 5.867 0 10.623 4.924 10.623 10.998 0 6.074-4.756 10.998-10.623 10.998-5.866 0-10.622-4.924-10.622-10.998z"/><path fill="none" stroke="#677089" stroke-linecap="round" stroke-linejoin="round" stroke-miterlimit="20" stroke-width="3" d="M301.764 45.387c0-6.074 4.756-10.998 10.622-10.998 5.867 0 10.623 4.924 10.623 10.998 0 6.074-4.756 10.998-10.623 10.998-5.866 0-10.622-4.924-10.622-10.998z"/><path fill="#fff" d="M354.95 39.254h72.976"/><path fill="none" stroke="#677089" stroke-linecap="round" stroke-linejoin="round" stroke-miterlimit="20" stroke-width="3" d="M354.95 39.254h72.976"/><path fill="#fff" d="M354.95 53.85h72.976"/><path fill="none" stroke="#677089" stroke-linecap="round" stroke-linejoin="round" stroke-miterlimit="20" stroke-width="3" d="M354.95 53.85h72.976"/><path fill="#fff" d="M354.95 68.445h72.976"/><path fill="none" stroke="#677089" stroke-linecap="round" stroke-linejoin="round" stroke-miterlimit="20" stroke-width="3" d="M354.95 68.445h72.976"/><path fill="#fff" d="M354.95 83.04h72.976"/><path fill="none" stroke="#677089" stroke-linecap="round" stroke-linejoin="round" stroke-miterlimit="20" stroke-width="3" d="M354.95 83.04h72.976"/><path fill="#4cbeb5" d="M272.49 200.4c.82 0 6.887.54 8.432.743 24.613 3.216 42.276 24.01 42.276 49.523 0 27.761-22.703 50.266-50.707 50.266-1.094 0-7.636-.524-9.86-.95-23.187-4.434-40.847-24.83-40.847-49.316 0-27.761 22.702-50.266 50.707-50.266z"/><path fill="#fff" d="M284.81 272.155c-2.161 0-3.892-.85-5.194-2.548-1.3-1.698-1.951-4.047-1.951-7.046 0-3 .65-5.348 1.951-7.046 1.302-1.698 3.033-2.548 5.194-2.548 2.206 0 3.948.86 5.227 2.58 1.28 1.721 1.919 4.059 1.919 7.014s-.64 5.293-1.919 7.013c-1.28 1.72-3.021 2.58-5.227 2.58zm7.576-.497c1.918-2.315 2.878-5.348 2.878-9.097 0-3.75-.96-6.782-2.878-9.097-1.919-2.316-4.444-3.474-7.576-3.474-3.087 0-5.602 1.158-7.542 3.474-1.941 2.315-2.912 5.348-2.912 9.097 0 3.75.97 6.782 2.912 9.097 1.94 2.316 4.455 3.474 7.542 3.474 3.132 0 5.657-1.158 7.576-3.474zm-35.96-21.337c-2.205 0-3.947-.86-5.227-2.58-1.279-1.72-1.918-4.058-1.918-7.014 0-2.955.64-5.293 1.918-7.013 1.28-1.72 3.022-2.58 5.227-2.58 2.162 0 3.893.849 5.194 2.547 1.301 1.698 1.952 4.047 1.952 7.046 0 3-.65 5.349-1.952 7.047-1.301 1.698-3.032 2.547-5.194 2.547zm-3.573 24.48h3.904l31.626-46.314h-3.904zm11.116-24.943c1.94-2.294 2.911-5.337 2.911-9.13 0-3.794-.97-6.837-2.911-9.131-1.94-2.294-4.455-3.44-7.543-3.44-3.131 0-5.657 1.157-7.575 3.473-1.92 2.316-2.878 5.348-2.878 9.097 0 3.75.959 6.782 2.878 9.098 1.918 2.315 4.444 3.473 7.575 3.473 3.088 0 5.602-1.147 7.543-3.44z"/><path fill="none" stroke="#677089" stroke-linecap="round" stroke-linejoin="round" stroke-miterlimit="20" stroke-width="3" d="M283.987 193.899a57.34 57.34 0 0 1 10.178 3.233 58.065 58.065 0 0 1 18.388 12.408 58.062 58.062 0 0 1 12.408 18.387 57.53 57.53 0 0 1 4.553 22.494 57.528 57.528 0 0 1-4.553 22.493 58.052 58.052 0 0 1-12.408 18.388 58.065 58.065 0 0 1-18.388 12.407 57.527 57.527 0 0 1-22.493 4.553c-.386 0-.503.007-.886 0m-10.249-1.075a57.371 57.371 0 0 1-11.358-3.478 58.056 58.056 0 0 1-18.388-12.407 58.068 58.068 0 0 1-12.408-18.388 57.526 57.526 0 0 1-4.553-22.494 57.526 57.526 0 0 1 4.553-22.493 58.056 58.056 0 0 1 12.408-18.387 58.057 58.057 0 0 1 18.388-12.408 57.534 57.534 0 0 1 22.493-4.553"/><path fill="#4cbeb5" d="M501.99 113V34h62v79z"/><path fill="#fff" d="M513.99 48h62l2.033 58.223-19.757 19.037h-44.275z"/><path fill="#677089" d="M575.56 104c0 .34-.062.732-.156 1.142h-12.986a6.299 6.299 0 0 0-6.286 6.286v11.862a5.977 5.977 0 0 1-1.143.138h-38.856c-.62 0-1.142-.523-1.142-1.143V49.143c0-.62.522-1.143 1.142-1.143h58.286c.62 0 1.143.523 1.143 1.143zm-2.25 5.208l-12.77 12.02a6.07 6.07 0 0 1-.98.716v-10.516c0-.785.317-1.491.84-2.017a2.848 2.848 0 0 1 2.018-.84h11.434a4.787 4.787 0 0 1-.543.637zm-61.748-60.065v61.714h-8c-.62 0-1.143-.523-1.143-1.143V36.571c0-.619.524-1.142 1.143-1.142h58.287c.618 0 1.143.523 1.143 1.142v8h-46.859a4.584 4.584 0 0 0-4.571 4.572zm62.857-4.572h-8v-8a4.584 4.584 0 0 0-4.57-4.571h-58.287a4.585 4.585 0 0 0-4.571 4.571v73.143a4.585 4.585 0 0 0 4.571 4.572h8v8a4.584 4.584 0 0 0 4.572 4.571h38.856c2.513 0 6.07-1.41 7.9-3.132l12.77-12.02c1.831-1.723 3.328-5.19 3.328-7.705l.003-54.857a4.585 4.585 0 0 0-4.572-4.572z"/><path fill="#677089" d="M561.849 60.571h-33.143a1.713 1.713 0 1 0 0 3.429h33.143a1.714 1.714 0 1 0 0-3.429zm0 22.857h-33.143a1.713 1.713 0 1 0 0 3.429h33.143a1.714 1.714 0 1 0 0-3.429zm-14.857 11.429h-18.286a1.714 1.714 0 1 0 0 3.429h18.286a1.713 1.713 0 1 0 0-3.429zM561.849 72h-33.143a1.713 1.713 0 1 0 0 3.429h33.143a1.714 1.714 0 1 0 0-3.43z"/></svg>